<?xml version="1.0" encoding="UTF-8" standalone="no"?>
<svg
   xmlns:dc="http://purl.org/dc/elements/1.1/"
   xmlns:cc="http://creativecommons.org/ns#"
   xmlns:rdf="http://www.w3.org/1999/02/22-rdf-syntax-ns#"
   xmlns:svg="http://www.w3.org/2000/svg"
   xmlns="http://www.w3.org/2000/svg"
   viewBox="0 0 552.61249 212.14999"
   height="212.14999"
   width="552.61249"
   xml:space="preserve"
   version="1.1"
   id="svg3355"><metadata
     id="metadata3361"><rdf:RDF><cc:Work
         rdf:about=""><dc:format>image/svg+xml</dc:format><dc:type
           rdf:resource="http://purl.org/dc/dcmitype/StillImage" /><dc:title></dc:title></cc:Work></rdf:RDF></metadata><defs
     id="defs3359" /><g
     transform="matrix(1.25,0,0,-1.25,0,212.15)"
     id="g3363"><g
       transform="scale(0.1,0.1)"
       id="g3365"><path
         id="path3367"
         style="fill:#de1e25;fill-opacity:1;fill-rule:nonzero;stroke:none"
         d="m 501.566,746.559 -164.531,-1.282 17.863,76.536 c 2.547,10.195 2.747,18.046 0.633,23.593 -2.129,5.52 -4.898,9.563 -8.289,12.117 -3.406,2.551 -8.508,4.243 -15.301,5.102 -7.66,0 -13.832,-1.723 -18.5,-5.102 -4.675,-3.406 -8.726,-7.457 -12.105,-12.117 -3.41,-4.687 -5.742,-9.148 -7.023,-13.398 -1.27,-4.258 -2.352,-7.227 -3.184,-8.926 L 177.613,307.82 l 0,-1.281 c 0,-0.859 -0.215,-3.18 -0.633,-7.008 -0.441,-3.832 -0.226,-8.101 0.633,-12.761 0.84,-4.68 2.969,-8.731 6.375,-12.122 3.391,-3.398 8.926,-5.089 16.582,-5.089 7.66,0 13.813,1.691 18.496,5.089 4.661,3.391 8.489,7.442 11.477,12.122 2.969,4.66 5.305,8.929 7.012,12.761 1.699,3.828 2.558,6.571 2.558,8.289 l 19.129,81.621 163.254,1.278 -26.785,-119.887 c -5.102,-22.121 -12.121,-41.25 -21.047,-57.402 -8.926,-16.16 -19.133,-29.969 -30.605,-41.442 -11.485,-11.488 -23.821,-20.847 -36.993,-28.066 -13.195,-7.223 -25.722,-12.973 -37.625,-17.211 -10.199,-4.262 -19.562,-7.02 -28.058,-8.301 -8.504,-1.269 -16.16,-2.762 -22.957,-4.461 -7.649,-1.711 -14.465,-2.551 -20.403,-2.551 l -63.769,0 c -10.203,0 -20.41,1.282 -30.613,3.832 -9.3676,1.692 -19.5707,4.461 -30.6058,8.29 -11.0664,3.832 -21.2696,9.558 -30.6172,17.218 -15.3008,11.032 -27.1953,26.563 -35.71097,46.551 -8.48828,19.973 -8.92578,46.973 -1.26953,80.992 l 131.3675,593.063 0,1.281 c 0,0.84 1.914,7.43 5.742,19.766 3.816,12.312 10.613,26.152 20.398,41.453 9.766,15.304 22.746,30.808 38.907,46.554 16.132,15.719 36.543,28.258 61.211,37.622 11.046,4.24 22.324,7.44 33.796,9.57 11.489,2.1 24.438,3.18 38.911,3.18 l 62.488,0 c 11.047,0.84 21.687,0 31.887,-2.55 9.343,-1.71 19.335,-4.68 29.976,-8.93 10.617,-4.27 21.035,-9.782 31.242,-16.579 14.453,-11.055 25.93,-26.582 34.446,-46.555 8.484,-19.976 8.925,-47.398 1.265,-82.254 L 501.566,746.559" /><path
         id="path3369"
         style="fill:#de1e25;fill-opacity:1;fill-rule:nonzero;stroke:none"
         d="m 671.188,427.699 68.867,0 72.707,420.891 -141.574,-420.891 z m 178.554,-316.301 -164.531,0 28.066,158.161 -94.382,0 -53.567,-158.161 -164.531,0 198.965,594.352 c 1.687,2.547 4.883,11.031 9.57,25.508 4.656,14.441 11.262,32.305 19.766,53.562 5.097,11.043 10.207,23.797 15.3,38.262 3.391,6.797 6.379,13.594 8.926,20.41 2.563,6.797 5.531,13.594 8.938,20.41 5.097,11.036 10.195,21.875 15.304,32.52 5.094,10.625 10.204,20.605 15.301,29.973 13.594,27.207 27.207,49.746 40.813,67.593 13.593,17.852 26.343,26.782 38.261,26.782 l 212.997,0 -135.196,-909.372" /><path
         id="path3371"
         style="fill:#de1e25;fill-opacity:1;fill-rule:nonzero;stroke:none"
         d="m 1169.87,649.629 33.16,0 c 5.1,0 9.76,1.269 14.03,3.82 4.24,1.699 8.48,4.672 12.75,8.93 4.25,4.25 7.66,10.203 10.21,17.859 0,0.832 1.69,8.492 5.09,22.961 3.39,14.446 7.02,30.391 10.85,47.824 3.82,17.418 7.65,33.36 11.48,47.832 3.83,14.442 5.74,22.098 5.74,22.958 3.39,18.691 1.27,31.027 -6.38,36.984 -3.41,3.387 -8.09,5.105 -14.03,5.105 l -34.43,0 -48.47,-214.273 z m -79.08,371.141 227.03,0 c 11.03,0.84 21.68,0 31.88,-2.55 9.35,-1.71 19.33,-4.68 29.97,-8.93 10.63,-4.27 21.05,-9.782 31.25,-16.579 14.45,-11.055 25.93,-26.777 34.44,-47.188 8.48,-20.41 8.92,-47.625 1.28,-81.621 l -49.75,-214.273 c -3.41,-17.859 -9.36,-34.438 -17.85,-49.738 -2.56,-5.961 -5.32,-11.282 -8.29,-15.95 -2.99,-4.679 -6.18,-9.14 -9.57,-13.39 -8.51,-11.063 -17.66,-20.621 -27.42,-28.699 -9.79,-8.082 -19.77,-15.102 -29.97,-21.043 1.69,-1.707 2.96,-2.77 3.82,-3.188 0.84,-0.441 2.11,-1.492 3.83,-3.191 12.76,-11.91 22.32,-27.641 28.69,-47.192 6.38,-19.566 6.17,-44.218 -0.63,-73.968 l -63.77,-281.872 -164.53,0 68.87,308.653 c 2.55,10.211 2.97,18.058 1.27,23.597 -1.71,5.524 -4.25,9.563 -7.64,12.122 -3.41,3.39 -7.66,5.101 -12.76,5.101 l -34.44,0 -79.07,-349.473 -164.532,0 207.892,909.372" /><path
         id="path3373"
         style="fill:#de1e25;fill-opacity:1;fill-rule:nonzero;stroke:none"
         d="m 1930.01,1020.77 -359.67,-751.211 187.49,0 -35.71,-158.161 -391.56,0 359.67,751.227 -188.77,0 26.1,115.582 c 5.62,24.883 27.73,42.563 53.25,42.563 l 349.2,0" /><path
         id="path3375"
         style="fill:#de1e25;fill-opacity:1;fill-rule:nonzero;stroke:none"
         d="M 2391.7,1020.77 2219.52,268.281 c -5.11,-22.121 -12.35,-41.043 -21.69,-56.761 -9.37,-15.739 -19.77,-29.34 -31.24,-40.809 -11.49,-11.481 -23.82,-20.852 -36.99,-28.063 -13.2,-7.226 -25.73,-12.976 -37.63,-17.207 -10.21,-4.269 -19.57,-7.242 -28.06,-8.941 -8.5,-1.711 -16.16,-2.988 -22.96,-3.82 -7.64,-0.86 -14.88,-1.282 -21.68,-1.282 l -62.5,0 c -11.05,0 -21.68,1.282 -31.88,3.832 -9.37,1.692 -19.57,4.461 -30.61,8.29 -11.06,3.832 -21.27,9.558 -30.61,17.218 -14.45,11.032 -25.93,26.563 -34.44,46.551 -8.48,19.973 -8.92,47.391 -1.27,82.27 l 172.18,751.211 163.25,0 -161.98,-712.95 0,-1.281 c 0,-0.859 -0.21,-3.18 -0.63,-7.008 -0.44,-3.832 -0.22,-8.101 0.63,-12.761 0.84,-4.68 2.98,-8.731 6.38,-12.122 3.39,-3.398 8.93,-5.089 16.58,-5.089 7.66,0 13.82,1.691 18.5,5.089 4.67,3.391 8.48,7.223 11.47,11.493 2.98,4.238 5.3,8.281 7.02,12.109 1.69,3.832 2.55,6.582 2.55,8.289 l 0,1.281 163.25,712.95 164.54,0" /><path
         id="path3377"
         style="fill:#de1e25;fill-opacity:1;fill-rule:nonzero;stroke:none"
         d="m 2840.63,1020.77 -359.67,-751.211 187.49,0 -35.71,-158.161 -391.55,0 359.67,751.227 -188.77,0 26.17,115.922 c 5.58,24.683 27.51,42.223 52.82,42.223 l 349.55,0" /><path
         id="path3379"
         style="fill:#211d1d;fill-opacity:1;fill-rule:nonzero;stroke:none"
         d="m 2674.83,136.359 c 0,17.762 12,30.243 28.81,30.243 16.8,0 28.32,-12.481 28.32,-30.243 0,-17.277 -11.05,-30.25 -28.81,-30.25 -16.79,0 -28.32,12.973 -28.32,30.25" /><path
         id="path3381"
         style="fill:#211d1d;fill-opacity:1;fill-rule:nonzero;stroke:none"
         d="m 2951.79,350.441 -61.94,-0.48 6.74,28.801 c 0.96,3.84 1.04,6.789 0.24,8.879 -0.8,2.078 -1.86,3.597 -3.13,4.558 -1.29,0.949 -3.2,1.602 -5.76,1.922 -2.87,0 -5.2,-0.652 -6.95,-1.922 -1.76,-1.277 -3.28,-2.808 -4.57,-4.558 -1.27,-1.77 -2.15,-3.45 -2.64,-5.039 -0.47,-1.602 -0.88,-2.731 -1.19,-3.364 l -42.74,-193.929 0,-0.477 c 0,-0.32 -0.07,-1.203 -0.23,-2.633 -0.16,-1.449 -0.08,-3.051 0.23,-4.808 0.34,-1.75 1.14,-3.282 2.41,-4.559 1.28,-1.281 3.36,-1.91 6.25,-1.91 2.87,0 5.19,0.629 6.95,1.91 1.76,1.277 3.2,2.809 4.32,4.559 1.13,1.757 2.01,3.359 2.65,4.808 0.63,1.43 0.96,2.473 0.96,3.11 l 7.19,30.73 61.44,0.473 -10.08,-45.114 c -1.91,-8.32 -4.57,-15.527 -7.93,-21.597 -3.36,-6.09 -7.18,-11.281 -11.5,-15.602 -4.34,-4.328 -8.97,-7.847 -13.93,-10.57 -4.96,-2.707 -9.68,-4.879 -14.16,-6.469 -3.84,-1.609 -7.36,-2.648 -10.56,-3.129 -3.21,-0.472 -6.08,-1.031 -8.64,-1.679 -2.89,-0.641 -5.44,-0.954 -7.67,-0.954 l -24.01,0 c -3.84,0 -7.67,0.481 -11.52,1.434 -3.51,0.648 -7.36,1.68 -11.52,3.129 -4.16,1.43 -8.01,3.598 -11.53,6.469 -5.76,4.16 -10.23,10 -13.43,17.531 -3.19,7.508 -3.36,17.68 -0.47,30.48 l 49.43,223.188 0,0.492 c 0,0.309 0.72,2.789 2.17,7.43 1.43,4.64 3.98,9.847 7.68,15.609 3.67,5.762 8.55,11.59 14.62,17.52 6.08,5.922 13.77,10.629 23.05,14.16 4.16,1.59 8.4,2.789 12.72,3.59 4.31,0.8 9.2,1.199 14.64,1.199 l 23.52,0 c 4.16,0.332 8.16,0 12.01,-0.949 3.52,-0.649 7.27,-1.758 11.27,-3.36 4.01,-1.601 7.93,-3.679 11.76,-6.242 5.45,-4.156 9.77,-10 12.97,-17.519 3.18,-7.52 3.36,-17.84 0.47,-30.957 l -9.59,-44.161" /><path
         id="path3383"
         style="fill:#211d1d;fill-opacity:1;fill-rule:nonzero;stroke:none"
         d="m 3000.24,185.309 c 0,-0.637 -0.07,-1.68 -0.23,-3.11 -0.16,-1.449 -0.08,-3.051 0.23,-4.808 0.34,-1.75 1.14,-3.282 2.41,-4.559 1.29,-1.281 3.36,-1.91 6.25,-1.91 2.87,0 5.19,0.629 6.95,1.91 1.76,1.277 3.28,2.809 4.57,4.559 1.27,1.757 2.23,3.359 2.87,4.808 0.65,1.43 0.96,2.473 0.96,3.11 l 43.69,193.453 c 0.96,3.84 1.11,6.789 0.47,8.879 -0.65,2.078 -1.6,3.597 -2.87,4.558 -1.29,0.949 -3.21,1.602 -5.76,1.922 -2.58,0 -4.81,-0.652 -6.72,-1.922 -1.94,-1.277 -3.46,-2.808 -4.57,-4.558 -1.12,-1.77 -2,-3.45 -2.64,-5.039 -0.64,-1.602 -1.11,-2.731 -1.45,-3.364 l 0,-0.476 -44.16,-193.453 z m 82.56,-14.387 c -1.91,-8.332 -4.63,-15.531 -8.14,-21.602 -3.54,-6.09 -7.52,-11.281 -12.01,-15.601 -4.48,-4.328 -9.2,-7.848 -14.16,-10.571 -4.96,-2.718 -9.67,-4.878 -14.16,-6.468 -3.83,-1.61 -7.37,-2.719 -10.55,-3.36 -3.2,-0.64 -6.09,-1.129 -8.65,-1.441 -2.87,-0.328 -5.61,-0.481 -8.17,-0.481 l -23.51,0 c -4.16,0 -8.17,0.481 -11.99,1.434 -3.54,0.648 -7.37,1.68 -11.53,3.129 -4.16,1.43 -8.01,3.598 -11.52,6.469 -5.43,4.16 -9.75,10.09 -12.95,17.769 -3.2,7.68 -3.36,17.922 -0.49,30.723 l 50.88,223.199 0,0.481 c 0.31,0.308 1.21,2.789 2.64,7.437 1.44,4.633 4,9.84 7.67,15.602 3.69,5.757 8.58,11.589 14.65,17.519 6.07,5.91 13.93,10.629 23.52,14.16 7.67,2.879 16.64,4.309 26.89,4.309 l 23.99,0 c 4.16,0 8.16,-0.481 12.01,-1.43 3.51,-0.648 7.26,-1.769 11.27,-3.359 4,-1.602 7.75,-3.68 11.29,-6.238 5.76,-4.161 10.23,-10.012 13.43,-17.52 3.21,-7.523 3.36,-17.844 0.49,-30.961 l -50.9,-223.199" /><path
         id="path3385"
         style="fill:#211d1d;fill-opacity:1;fill-rule:nonzero;stroke:none"
         d="m 3099.62,111.398 77.75,342.231 91.68,0 -3.84,-215.508 94.57,215.508 92.63,0 -77.75,-342.231 -61.94,0 48.48,212.633 -98.4,-212.633 -51.83,0 -1.92,209.274 -47.52,-209.274 -61.91,0" /><path
         id="path3387"
         style="fill:#211d1d;fill-opacity:1;fill-rule:nonzero;stroke:none"
         d="m 4330.71,862.324 c -10.82,-0.789 -21.37,1.297 -31.11,6.094 -6.16,3.035 -13.56,2 -18.66,-2.617 -5.08,-4.617 -6.84,-11.875 -4.43,-18.309 3.43,-9.133 5.51,-18.656 6.18,-28.308 3.86,-55.11 -37.85,-103.098 -92.97,-106.981 -2.36,-0.168 -4.75,-0.25 -7.11,-0.25 -27.34,0 -52.92,10.899 -72.02,30.692 -4.12,4.273 -10.2,6.046 -15.98,4.652 -5.77,-1.391 -10.38,-5.734 -12.11,-11.422 -12.13,-39.965 -48.26,-68.773 -89.89,-71.684 -2.39,-0.171 -4.82,-0.25 -7.21,-0.25 -34.76,0 -66.69,17.559 -85.4,46.973 -3.37,5.297 -9.41,8.285 -15.67,7.691 -6.25,-0.578 -11.66,-4.597 -14.01,-10.421 -13.67,-33.934 -44.81,-56.602 -81.24,-59.153 -2.23,-0.16 -4.49,-0.242 -6.72,-0.242 -43.38,0 -81.05,29.383 -91.62,71.441 -1.54,6.153 -6.43,10.907 -12.62,12.278 -1.21,0.269 -2.42,0.398 -3.63,0.398 -4.98,0 -9.78,-2.226 -13,-6.191 -23.39,-28.797 -56.59,-46.067 -93.51,-48.637 -3.14,-0.219 -6.31,-0.328 -9.44,-0.328 -69.11,0 -127.04,54.102 -131.9,123.148 -0.37,5.34 -0.4,10.946 -0.08,16.657 0.27,4.945 -1.65,9.758 -5.26,13.144 -3.61,3.387 -8.53,4.996 -13.45,4.418 -0.57,-0.066 -1.16,-0.137 -1.55,-0.172 -1.92,-0.132 -3.87,-0.199 -5.79,-0.199 -42.57,0 -78.26,33.309 -81.24,75.828 -2.96,42.27 26.29,79.278 68.03,86.082 4.84,0.793 9.1,3.664 11.64,7.874 2.54,4.2 3.1,9.31 1.55,13.96 -2.93,8.81 -4.42,17.99 -4.42,27.3 0,27.96 13.5,52.76 34.27,68.44 6.72,5.07 14.22,9.15 22.26,12.11 0.73,0.26 1.45,0.55 2.19,0.8 1.37,0.46 2.76,0.85 4.15,1.24 1.2,0.33 2.41,0.66 3.64,0.94 1.18,0.28 2.38,0.53 3.59,0.76 1.58,0.3 3.19,0.53 4.8,0.74 0.96,0.12 1.92,0.27 2.88,0.36 2.64,0.25 5.31,0.41 8.01,0.41 4.2,0 8.37,-0.31 12.47,-0.91 12.31,-1.79 24.07,-6.25 34.53,-13.14 2.09,-1.38 4.44,-2.25 6.86,-2.6 1.21,-0.17 2.44,-0.21 3.67,-0.12 1.22,0.1 2.45,0.33 3.64,0.7 1.2,0.37 2.34,0.87 3.41,1.49 1.06,0.61 2.05,1.34 2.95,2.17 1.81,1.65 3.25,3.7 4.2,6.02 2.19,5.38 4.76,10.52 7.66,15.4 15.97,26.85 42.08,45.75 72.24,52.61 8.23,1.88 16.76,2.86 25.47,2.86 3.77,0 7.53,-0.19 11.24,-0.55 11.14,-1.09 21.94,-3.79 32.12,-7.98 6.79,-2.81 13.3,-6.27 19.46,-10.36 6.15,-4.1 11.96,-8.83 17.32,-14.16 0.87,-0.86 1.82,-1.62 2.84,-2.26 3.06,-1.94 6.7,-2.84 10.36,-2.55 3.67,0.31 7.1,1.81 9.8,4.23 0.89,0.8 1.71,1.71 2.42,2.71 8.31,11.59 19.18,20.84 31.53,27.2 12.34,6.35 26.17,9.81 40.38,9.81 23.34,0 45.6,-9.38 61.97,-25.4 5.45,-5.34 10.25,-11.42 14.21,-18.13 2.64,-4.47 7.18,-7.45 12.32,-8.1 3.84,-0.49 7.7,0.37 10.94,2.38 1.09,0.67 2.09,1.47 3.01,2.38 10.74,10.73 23.24,19.04 36.85,24.67 6.81,2.82 13.89,4.97 21.17,6.41 7.28,1.44 14.75,2.18 22.34,2.18 l 0,0 c 3.01,0 6,-0.14 8.96,-0.38 0.98,-0.07 1.95,-0.21 2.92,-0.31 1.97,-0.2 3.93,-0.44 5.87,-0.74 1.15,-0.18 2.29,-0.39 3.43,-0.61 1.74,-0.33 3.47,-0.7 5.18,-1.1 1.19,-0.28 2.38,-0.57 3.56,-0.89 1.64,-0.45 3.25,-0.95 4.86,-1.47 1.18,-0.38 2.37,-0.73 3.53,-1.15 1.61,-0.58 3.18,-1.23 4.76,-1.87 2.35,-0.96 4.65,-2 6.92,-3.11 1.11,-0.54 2.24,-1.06 3.33,-1.64 1.55,-0.82 3.05,-1.71 4.55,-2.6 0.87,-0.52 1.74,-1.02 2.59,-1.55 1.57,-0.99 3.11,-2.03 4.63,-3.09 0.68,-0.48 1.37,-0.96 2.04,-1.46 1.61,-1.17 3.2,-2.38 4.74,-3.64 0.43,-0.35 0.84,-0.71 1.26,-1.06 9.51,-8 17.73,-17.53 24.24,-28.33 0.06,-0.1 0.13,-0.2 0.19,-0.3 1.31,-2.19 2.55,-4.43 3.72,-6.72 l 0,0 c 0.77,-1.49 1.54,-2.98 2.24,-4.52 l 0,0 c 1.34,-2.95 2.56,-5.97 3.67,-9.05 0.03,-0.1 0.08,-0.2 0.12,-0.3 1.12,-3.17 2.11,-6.41 2.95,-9.72 0.78,-3.04 2.37,-5.74 4.54,-7.85 2.16,-2.11 4.89,-3.64 7.95,-4.34 1.53,-0.35 3.08,-0.48 4.6,-0.4 3.05,0.15 6,1.14 8.52,2.84 1.27,0.86 2.43,1.89 3.44,3.09 8.62,10.21 19.23,18.25 31.01,23.73 11.79,5.49 24.75,8.42 38.09,8.42 4.19,0 8.28,-0.39 12.31,-0.94 0.98,-0.13 1.96,-0.28 2.94,-0.45 3.97,-0.68 7.9,-1.53 11.68,-2.71 0.01,-0.01 0.02,-0.01 0.03,-0.01 3.8,-1.19 7.44,-2.7 11.01,-4.36 0.83,-0.39 1.66,-0.79 2.49,-1.2 3.51,-1.77 6.95,-3.69 10.19,-5.89 23.98,-16.28 39.78,-43.76 39.78,-74.87 0,-10.8 -1.89,-21.38 -5.61,-31.45 -1.88,-5.08 -1.19,-10.757 1.87,-15.237 3.05,-4.485 8.08,-7.211 13.5,-7.321 31.66,-0.64 57.21,-24.988 59.42,-56.633 2.34,-33.523 -23.01,-62.691 -56.55,-65.035 z M 3854.88,519.59 c -4.8,-4.801 -6.23,-12 -3.64,-18.27 2.6,-6.261 8.71,-10.34 15.48,-10.34 l 100.9,0 -294.58,-352.601 146.51,291.961 c 2.61,5.191 2.33,11.371 -0.72,16.308 -3.05,4.954 -8.44,7.961 -14.26,7.961 l -116.25,0 68.11,163.332 c 8.4,-1.73 17.08,-2.652 25.94,-2.652 3,0 6.05,0.109 9.05,0.32 40.07,2.801 75.4,23.571 97.17,55.879 20.9,-21.699 48.42,-35.679 78.42,-39.769 L 3854.88,519.59 Z m -238.82,883.7 c 31.19,0 55.81,-24.62 55.81,-55.81 0,-31.3 -25.91,-55.81 -55.81,-55.81 -29.9,0 -54.52,24.62 -54.52,55.81 0,31.19 23.34,55.81 54.52,55.81 z m -12.81,105.79 60.17,124.11 c 8.09,16.67 25.01,27.27 43.54,27.27 l 294.71,0 c 18.53,0 35.47,-10.6 43.54,-27.27 l 60.16,-124.11 c 2.41,-4.96 2.09,-10.81 -0.84,-15.47 -2.92,-4.68 -8.04,-7.51 -13.57,-7.51 l -208.44,0 108.93,104.18 c 3.36,3.24 3.5,8.6 0.25,11.97 -3.22,3.38 -8.57,3.48 -11.96,0.26 l -121.63,-116.34 c -0.03,-0.01 -0.03,-0.05 -0.06,-0.07 l -240.4,0 c -5.52,0 -10.64,2.83 -13.56,7.51 -2.93,4.66 -3.24,10.5 -0.84,15.47 z m 553.32,-161.6 c 0,-31.3 -24.73,-55.93 -54.52,-55.81 -31.18,0 -55.8,24.62 -55.8,55.81 0,31.19 24.62,55.81 55.8,55.81 31.19,0 54.52,-24.62 54.52,-55.81 z m 264.12,-417.789 c -2.93,41.872 -32.22,75.509 -71.28,85.079 1.45,7.62 2.18,15.38 2.18,23.23 0,50.29 -30.16,93.59 -73.29,113 l 0,157.68 c 0,21.6 -6.28,41.92 -17.38,59.69 l -76.69,92.35 -109.85,205.66 c -10.13,18.96 -29.87,30.8 -51.37,30.8 l -337.39,0 c -21.49,0 -41.24,-11.84 -51.37,-30.8 l -109.85,-205.67 -76.68,-92.34 c -11.1,-17.76 -17.39,-38.09 -17.39,-59.69 l 0,-155.45 c -40.02,-19.27 -67.77,-60.12 -67.77,-107.43 0,-6.85 0.58,-13.65 1.73,-20.35 -49.35,-16.16 -82.19,-63.704 -78.45,-117.212 4.03,-57.496 50.45,-103.054 107.19,-106.758 0.05,-0.976 0.11,-1.941 0.18,-2.91 6.08,-86.535 78.71,-154.332 165.33,-154.332 3.9,0 7.87,0.141 11.77,0.41 36.27,2.532 70.72,17.09 97.82,40.84 12.43,-24.636 32.4,-44.328 56.59,-56.519 l -77,-184.68 c -2.16,-5.168 -1.59,-11.07 1.52,-15.73 3.11,-4.668 8.34,-7.469 13.94,-7.469 l 114.24,0 -199.13,-396.8205 c -3.82,-7.6093 -1.33,-16.85934 5.78,-21.53122 C 3586.89,0.890625 3590.09,0 3593.25,0 c 4.82,0 9.58,2.07031 12.87,6.01172 L 4016.31,496.988 c 4.17,4.992 5.07,11.953 2.32,17.844 -2.76,5.887 -8.67,9.656 -15.18,9.656 l -96.28,0 109.75,109.75 c 37.86,9.16 70.3,34.512 88.3,69.028 25.04,-17.766 55.89,-26.684 86.85,-24.496 73.54,5.179 129.19,69.214 124.05,142.738 -0.18,2.601 -0.43,5.191 -0.77,7.773 5.83,-0.679 11.89,-0.812 17.73,-0.386 51.93,3.628 91.23,48.839 87.61,100.796" /><path
         id="path3389"
         style="fill:#211d1d;fill-opacity:1;fill-rule:nonzero;stroke:none"
         d="m 4116.62,953.309 c -6.17,0 -11.17,-5 -11.17,-11.168 0,-51.528 -41.92,-93.45 -93.45,-93.45 -27.64,0 -53.71,12.153 -71.53,33.34 -2.37,2.809 -5.96,4.309 -9.61,3.926 -3.65,-0.344 -6.9,-2.469 -8.69,-5.672 -18.72,-33.543 -54.16,-54.375 -92.51,-54.375 -43.35,0 -81.88,25.985 -98.16,66.199 -1.42,3.52 -4.54,6.075 -8.27,6.786 -3.73,0.703 -7.56,-0.528 -10.18,-3.282 -12.3,-12.941 -28.89,-20.07 -46.7,-20.07 -35.54,0 -64.45,28.91 -64.45,64.445 0,6.168 -5,11.168 -11.17,11.168 -6.17,0 -11.17,-5 -11.17,-11.168 0,-47.855 38.93,-86.785 86.79,-86.785 18.67,0 36.34,5.813 51.06,16.594 22.38,-40.684 64.94,-66.231 112.26,-66.231 41.44,0 80.09,20.094 104.03,53.293 21.25,-19.543 49.07,-30.515 78.3,-30.515 63.85,0 115.79,51.945 115.79,115.789 0,6.176 -5.01,11.176 -11.17,11.176" /><path
         id="path3391"
         style="fill:#fbc01c;fill-opacity:1;fill-rule:nonzero;stroke:none"
         d="m 3851.24,501.32 c 2.6,-6.261 8.71,-10.34 15.48,-10.34 l 100.9,0 -294.58,-352.601 146.51,291.961 c 2.61,5.191 2.33,11.371 -0.72,16.308 -3.05,4.954 -8.44,7.961 -14.26,7.961 l -116.25,0 68.11,163.332 c 8.4,-1.73 17.08,-2.652 25.94,-2.652 3,0 6.04,0.109 9.05,0.32 40.07,2.801 75.4,23.571 97.17,55.879 20.91,-21.699 48.42,-35.679 78.42,-39.769 L 3854.88,519.59 c -4.8,-4.801 -6.23,-12 -3.64,-18.27" /></g></g></svg>